<mxfile host="65bd71144e">
    <diagram id="LwMutZZ-WaKQiLU3n11E" name="Page-1">
        <mxGraphModel dx="1513" dy="1024" grid="1" gridSize="10" guides="1" tooltips="1" connect="1" arrows="1" fold="1" page="1" pageScale="1" pageWidth="1700" pageHeight="1100" math="0" shadow="0">
            <root>
                <mxCell id="0"/>
                <mxCell id="1" parent="0"/>
                <mxCell id="2" value="Routine(or Rote) Method" style="rounded=1;whiteSpace=wrap;html=1;" vertex="1" parent="1">
                    <mxGeometry x="370" y="590" width="180" height="60" as="geometry"/>
                </mxCell>
                <mxCell id="3" value="Established Methods and Past Experiences" style="rounded=1;whiteSpace=wrap;html=1;" vertex="1" parent="1">
                    <mxGeometry x="660" y="600" width="240" height="40" as="geometry"/>
                </mxCell>
                <mxCell id="5" value="First-Best Idea Approach" style="rounded=1;whiteSpace=wrap;html=1;" vertex="1" parent="1">
                    <mxGeometry x="370" y="660" width="180" height="60" as="geometry"/>
                </mxCell>
                <mxCell id="6" value="Intuition and Initial Impressions" style="rounded=1;whiteSpace=wrap;html=1;" vertex="1" parent="1">
                    <mxGeometry x="650" y="670" width="240" height="40" as="geometry"/>
                </mxCell>
                <mxCell id="8" value="Generating Multiple Alternatives" style="rounded=1;whiteSpace=wrap;html=1;" vertex="1" parent="1">
                    <mxGeometry x="370" y="730" width="220" height="60" as="geometry"/>
                </mxCell>
                <mxCell id="9" value="Evaluating Multiple Options" style="rounded=1;whiteSpace=wrap;html=1;" vertex="1" parent="1">
                    <mxGeometry x="670" y="745" width="220" height="30" as="geometry"/>
                </mxCell>
                <mxCell id="4" value="relies on" style="rounded=1;whiteSpace=wrap;html=1;;" edge="1" parent="1" source="2" target="3">
                    <mxGeometry relative="1" as="geometry"/>
                </mxCell>
                <mxCell id="7" value="emphasizes" style="rounded=1;whiteSpace=wrap;html=1;;" edge="1" parent="1" source="5" target="6">
                    <mxGeometry relative="1" as="geometry"/>
                </mxCell>
                <mxCell id="10" value="focuses on" style="rounded=1;whiteSpace=wrap;html=1;;" edge="1" parent="1" source="8" target="9">
                    <mxGeometry relative="1" as="geometry"/>
                </mxCell>
                <mxCell id="11" value="Pre-Planning Multiple Steps" style="rounded=1;whiteSpace=wrap;html=1;" vertex="1" parent="1">
                    <mxGeometry x="370" y="800" width="220" height="60" as="geometry"/>
                </mxCell>
                <mxCell id="12" value="Think several moves ahead&amp;nbsp;" style="rounded=1;whiteSpace=wrap;html=1;" vertex="1" parent="1">
                    <mxGeometry x="660" y="815" width="300" height="30" as="geometry"/>
                </mxCell>
                <mxCell id="vkzU3TonNFi_34LnpfCu-135" style="edgeStyle=none;html=1;entryX=0.5;entryY=0;entryDx=0;entryDy=0;exitX=0.5;exitY=1;exitDx=0;exitDy=0;" edge="1" parent="1" source="13" target="17">
                    <mxGeometry relative="1" as="geometry">
                        <mxPoint x="780" y="320" as="sourcePoint"/>
                        <Array as="points">
                            <mxPoint x="790" y="320"/>
                            <mxPoint x="660" y="320"/>
                        </Array>
                    </mxGeometry>
                </mxCell>
                <mxCell id="13" value="Second Generation Systems Approach" style="rounded=1;whiteSpace=wrap;html=1;" vertex="1" parent="1">
                    <mxGeometry x="680" y="250" width="220" height="60" as="geometry"/>
                </mxCell>
                <mxCell id="vkzU3TonNFi_34LnpfCu-40" style="edgeStyle=none;html=1;entryX=0;entryY=0.75;entryDx=0;entryDy=0;" edge="1" parent="1" target="23">
                    <mxGeometry relative="1" as="geometry">
                        <mxPoint x="1110" y="290" as="sourcePoint"/>
                        <Array as="points">
                            <mxPoint x="1110" y="505"/>
                        </Array>
                    </mxGeometry>
                </mxCell>
                <mxCell id="vkzU3TonNFi_34LnpfCu-105" style="edgeStyle=none;html=1;exitX=0.351;exitY=1.026;exitDx=0;exitDy=0;entryX=0;entryY=0.5;entryDx=0;entryDy=0;exitPerimeter=0;" edge="1" parent="1" source="14" target="vkzU3TonNFi_34LnpfCu-98">
                    <mxGeometry relative="1" as="geometry">
                        <Array as="points">
                            <mxPoint x="1080" y="740"/>
                        </Array>
                    </mxGeometry>
                </mxCell>
                <mxCell id="vkzU3TonNFi_34LnpfCu-111" style="edgeStyle=none;html=1;exitX=0.25;exitY=1;exitDx=0;exitDy=0;entryX=0;entryY=0.667;entryDx=0;entryDy=0;entryPerimeter=0;" edge="1" parent="1" source="14" target="vkzU3TonNFi_34LnpfCu-95">
                    <mxGeometry relative="1" as="geometry">
                        <Array as="points">
                            <mxPoint x="1050" y="860"/>
                        </Array>
                    </mxGeometry>
                </mxCell>
                <mxCell id="vkzU3TonNFi_34LnpfCu-120" style="edgeStyle=none;html=1;exitX=0.142;exitY=1.02;exitDx=0;exitDy=0;exitPerimeter=0;entryX=0.5;entryY=0;entryDx=0;entryDy=0;" edge="1" parent="1" source="14" target="vkzU3TonNFi_34LnpfCu-34">
                    <mxGeometry relative="1" as="geometry">
                        <mxPoint x="230" y="670" as="targetPoint"/>
                        <Array as="points">
                            <mxPoint x="1020" y="350"/>
                            <mxPoint x="340" y="350"/>
                            <mxPoint x="340" y="610"/>
                            <mxPoint x="160" y="610"/>
                        </Array>
                    </mxGeometry>
                </mxCell>
                <mxCell id="vkzU3TonNFi_34LnpfCu-140" style="edgeStyle=none;html=1;exitX=0.5;exitY=1;exitDx=0;exitDy=0;entryX=0;entryY=0.5;entryDx=0;entryDy=0;" edge="1" parent="1" source="14" target="25">
                    <mxGeometry relative="1" as="geometry">
                        <Array as="points">
                            <mxPoint x="1120" y="570"/>
                        </Array>
                    </mxGeometry>
                </mxCell>
                <mxCell id="14" value="Collaborative and Argumentative Planning" style="rounded=1;whiteSpace=wrap;html=1;" vertex="1" parent="1">
                    <mxGeometry x="980" y="240" width="280" height="60" as="geometry"/>
                </mxCell>
                <mxCell id="15" value="involves" style="rounded=1;whiteSpace=wrap;html=1;;" edge="1" parent="1" source="11" target="12">
                    <mxGeometry relative="1" as="geometry"/>
                </mxCell>
                <mxCell id="16" value="proposes" style="rounded=1;whiteSpace=wrap;html=1;;" edge="1" parent="1" source="13" target="14">
                    <mxGeometry relative="1" as="geometry"/>
                </mxCell>
                <mxCell id="vkzU3TonNFi_34LnpfCu-83" style="edgeStyle=none;html=1;exitX=1;exitY=0.5;exitDx=0;exitDy=0;entryX=0;entryY=0.5;entryDx=0;entryDy=0;" edge="1" parent="1" source="17" target="vkzU3TonNFi_34LnpfCu-82">
                    <mxGeometry relative="1" as="geometry"/>
                </mxCell>
                <mxCell id="17" value="Wicked Problems" style="rounded=1;whiteSpace=wrap;html=1;" vertex="1" parent="1">
                    <mxGeometry x="580" y="380" width="160" height="60" as="geometry"/>
                </mxCell>
                <mxCell id="18" value="Distributed Knowledge Across multiples" style="rounded=1;whiteSpace=wrap;html=1;" vertex="1" parent="1">
                    <mxGeometry x="1130" y="380" width="260" height="60" as="geometry"/>
                </mxCell>
                <mxCell id="19" value="Symmetry of Ignorance" style="rounded=1;whiteSpace=wrap;html=1;" vertex="1" parent="1">
                    <mxGeometry x="1460" y="390" width="200" height="40" as="geometry"/>
                </mxCell>
                <mxCell id="21" value="" style="edgeStyle=orthogonalEdgeStyle;rounded=1;html=1;exitX=0.5;exitY=1;exitDx=0;exitDy=0;entryX=0;entryY=0.5;entryDx=0;entryDy=0;" edge="1" parent="1" source="14" target="18">
                    <mxGeometry relative="1" as="geometry">
                        <Array as="points">
                            <mxPoint x="1120" y="410"/>
                        </Array>
                        <mxPoint as="offset"/>
                    </mxGeometry>
                </mxCell>
                <mxCell id="22" value="due to" style="rounded=1;whiteSpace=wrap;html=1;;" edge="1" parent="1" source="18" target="19">
                    <mxGeometry relative="1" as="geometry">
                        <mxPoint x="1920" y="410" as="sourcePoint"/>
                        <mxPoint x="1720" y="410" as="targetPoint"/>
                        <Array as="points"/>
                        <mxPoint as="offset"/>
                    </mxGeometry>
                </mxCell>
                <mxCell id="24" value="Effective Planning" style="rounded=1;whiteSpace=wrap;html=1;" vertex="1" parent="1">
                    <mxGeometry x="1440" y="470" width="160" height="40" as="geometry"/>
                </mxCell>
                <mxCell id="25" value="Transparency in Planning" style="rounded=1;whiteSpace=wrap;html=1;" vertex="1" parent="1">
                    <mxGeometry x="1130" y="540" width="200" height="60" as="geometry"/>
                </mxCell>
                <mxCell id="26" value="Understanding and Communicating Steps" style="rounded=1;whiteSpace=wrap;html=1;" vertex="1" parent="1">
                    <mxGeometry x="1400" y="550" width="260" height="40" as="geometry"/>
                </mxCell>
                <mxCell id="27" value="necessary for" style="rounded=1;whiteSpace=wrap;html=1;;" edge="1" parent="1" source="23" target="24">
                    <mxGeometry relative="1" as="geometry"/>
                </mxCell>
                <mxCell id="28" value="facilitates" style="rounded=1;whiteSpace=wrap;html=1;;" edge="1" parent="1" source="25" target="26">
                    <mxGeometry relative="1" as="geometry"/>
                </mxCell>
                <mxCell id="29" value="Deontic Premise" style="rounded=1;whiteSpace=wrap;html=1;" vertex="1" parent="1">
                    <mxGeometry x="1430" y="600" width="140" height="30" as="geometry"/>
                </mxCell>
                <mxCell id="31" value="Objectification Process" style="rounded=1;whiteSpace=wrap;html=1;" vertex="1" parent="1">
                    <mxGeometry x="1130" y="630" width="180" height="60" as="geometry"/>
                </mxCell>
                <mxCell id="32" value="Clarify and Communicate Judgement Basis" style="rounded=1;whiteSpace=wrap;html=1;" vertex="1" parent="1">
                    <mxGeometry x="1410" y="640" width="260" height="40" as="geometry"/>
                </mxCell>
                <mxCell id="34" value="aims to" style="rounded=1;whiteSpace=wrap;html=1;;" edge="1" parent="1" source="31" target="32">
                    <mxGeometry relative="1" as="geometry"/>
                </mxCell>
                <mxCell id="vkzU3TonNFi_34LnpfCu-35" style="edgeStyle=none;html=1;entryX=0;entryY=0.5;entryDx=0;entryDy=0;" edge="1" parent="1" source="vkzU3TonNFi_34LnpfCu-34" target="2">
                    <mxGeometry relative="1" as="geometry"/>
                </mxCell>
                <mxCell id="vkzU3TonNFi_34LnpfCu-36" style="rounded=1;whiteSpace=wrap;html=1;;" edge="1" parent="1" source="vkzU3TonNFi_34LnpfCu-34" target="5">
                    <mxGeometry relative="1" as="geometry"/>
                </mxCell>
                <mxCell id="vkzU3TonNFi_34LnpfCu-37" style="rounded=1;whiteSpace=wrap;html=1;;" edge="1" parent="1" source="vkzU3TonNFi_34LnpfCu-34" target="8">
                    <mxGeometry relative="1" as="geometry"/>
                </mxCell>
                <mxCell id="vkzU3TonNFi_34LnpfCu-146" style="edgeStyle=none;html=1;exitX=0.75;exitY=1;exitDx=0;exitDy=0;entryX=0;entryY=0.5;entryDx=0;entryDy=0;" edge="1" parent="1" source="vkzU3TonNFi_34LnpfCu-34" target="11">
                    <mxGeometry relative="1" as="geometry"/>
                </mxCell>
                <mxCell id="vkzU3TonNFi_34LnpfCu-34" value="Planning approaches" style="rounded=1;whiteSpace=wrap;html=1;" vertex="1" parent="1">
                    <mxGeometry x="30" y="650" width="260" height="60" as="geometry"/>
                </mxCell>
                <mxCell id="41" value="Deliberation in Decision-Making" style="rounded=1;whiteSpace=wrap;html=1;" vertex="1" parent="1">
                    <mxGeometry x="400" y="890" width="220" height="60" as="geometry"/>
                </mxCell>
                <mxCell id="42" value="Pure Intuition" style="rounded=1;whiteSpace=wrap;html=1;" vertex="1" parent="1">
                    <mxGeometry x="720" y="890" width="140" height="60" as="geometry"/>
                </mxCell>
                <mxCell id="43" value="Overall judgements" style="rounded=1;whiteSpace=wrap;html=1;" vertex="1" parent="1">
                    <mxGeometry x="410" y="990" width="160" height="60" as="geometry"/>
                </mxCell>
                <mxCell id="44" value="Partial judgements" style="rounded=1;whiteSpace=wrap;html=1;" vertex="1" parent="1">
                    <mxGeometry x="710" y="990" width="220" height="60" as="geometry"/>
                </mxCell>
                <mxCell id="45" value="contrasts with" style="rounded=1;whiteSpace=wrap;html=1;;" edge="1" parent="1" source="41" target="42">
                    <mxGeometry relative="1" as="geometry"/>
                </mxCell>
                <mxCell id="46" value="contrasts with" style="rounded=1;whiteSpace=wrap;html=1;;" edge="1" parent="1" source="43" target="44">
                    <mxGeometry relative="1" as="geometry"/>
                </mxCell>
                <mxCell id="vkzU3TonNFi_34LnpfCu-48" value="reduce the effect of&amp;nbsp;" style="edgeStyle=orthogonalEdgeStyle;rounded=1;html=1;exitX=0.5;exitY=1;exitDx=0;exitDy=0;entryX=0.005;entryY=0.625;entryDx=0;entryDy=0;entryPerimeter=0;" edge="1" parent="1" source="25" target="29">
                    <mxGeometry x="-0.0146" y="8" relative="1" as="geometry">
                        <mxPoint x="1310" y="620" as="sourcePoint"/>
                        <mxPoint x="1410" y="620" as="targetPoint"/>
                        <mxPoint as="offset"/>
                    </mxGeometry>
                </mxCell>
                <mxCell id="vkzU3TonNFi_34LnpfCu-58" style="rounded=1;whiteSpace=wrap;html=1;;entryX=0;entryY=0.5;entryDx=0;entryDy=0;" edge="1" parent="1" target="41">
                    <mxGeometry relative="1" as="geometry">
                        <mxPoint x="250" y="920" as="sourcePoint"/>
                    </mxGeometry>
                </mxCell>
                <mxCell id="vkzU3TonNFi_34LnpfCu-59" style="rounded=1;whiteSpace=wrap;html=1;;" edge="1" parent="1" target="43">
                    <mxGeometry relative="1" as="geometry">
                        <mxPoint x="250" y="947.2727272727275" as="sourcePoint"/>
                        <Array as="points">
                            <mxPoint x="250" y="1020"/>
                        </Array>
                    </mxGeometry>
                </mxCell>
                <mxCell id="49" value="&amp;nbsp; First Generation&amp;nbsp;" style="rounded=1;whiteSpace=wrap;html=1;" vertex="1" parent="1">
                    <mxGeometry x="330" y="250" width="240" height="60" as="geometry"/>
                </mxCell>
                <mxCell id="52" value="contrasted with" style="rounded=1;whiteSpace=wrap;html=1;;" edge="1" parent="1" source="49" target="13">
                    <mxGeometry relative="1" as="geometry">
                        <mxPoint x="730" y="380" as="targetPoint"/>
                        <Array as="points"/>
                    </mxGeometry>
                </mxCell>
                <mxCell id="55" value="Wicked Problems vs. Tame Problems" style="rounded=1;whiteSpace=wrap;html=1;" vertex="1" parent="1">
                    <mxGeometry x="340" y="60" width="240" height="60" as="geometry"/>
                </mxCell>
                <mxCell id="56" value="Complexity and Uncertainty" style="rounded=1;whiteSpace=wrap;html=1;" vertex="1" parent="1">
                    <mxGeometry x="770" y="60" width="200" height="60" as="geometry"/>
                </mxCell>
                <mxCell id="58" value="highlights" style="rounded=1;whiteSpace=wrap;html=1;;" edge="1" parent="1" source="55" target="56">
                    <mxGeometry relative="1" as="geometry">
                        <mxPoint as="offset"/>
                    </mxGeometry>
                </mxCell>
                <mxCell id="59" value="Rationality in Planning" style="rounded=1;whiteSpace=wrap;html=1;" vertex="1" parent="1">
                    <mxGeometry x="370" y="500" width="180" height="60" as="geometry"/>
                </mxCell>
                <mxCell id="60" value="Paradoxes" style="rounded=1;whiteSpace=wrap;html=1;" vertex="1" parent="1">
                    <mxGeometry x="630" y="500" width="120" height="60" as="geometry"/>
                </mxCell>
                <mxCell id="vkzU3TonNFi_34LnpfCu-66" style="edgeStyle=none;html=1;exitX=0.5;exitY=1;exitDx=0;exitDy=0;entryX=0.5;entryY=0;entryDx=0;entryDy=0;" edge="1" parent="1" source="61" target="59">
                    <mxGeometry relative="1" as="geometry"/>
                </mxCell>
                <mxCell id="61" value="Linear Processes" style="rounded=1;whiteSpace=wrap;html=1;" vertex="1" parent="1">
                    <mxGeometry x="380" y="400" width="160" height="60" as="geometry"/>
                </mxCell>
                <mxCell id="vkzU3TonNFi_34LnpfCu-68" style="edgeStyle=none;html=1;entryX=0.5;entryY=0;entryDx=0;entryDy=0;" edge="1" parent="1" source="62" target="49">
                    <mxGeometry relative="1" as="geometry">
                        <Array as="points">
                            <mxPoint x="450" y="190"/>
                        </Array>
                    </mxGeometry>
                </mxCell>
                <mxCell id="vkzU3TonNFi_34LnpfCu-69" style="edgeStyle=none;html=1;exitX=1;exitY=0.5;exitDx=0;exitDy=0;entryX=0.5;entryY=0;entryDx=0;entryDy=0;" edge="1" parent="1" source="62" target="13">
                    <mxGeometry relative="1" as="geometry">
                        <Array as="points">
                            <mxPoint x="790" y="190"/>
                        </Array>
                    </mxGeometry>
                </mxCell>
                <mxCell id="vkzU3TonNFi_34LnpfCu-71" style="edgeStyle=none;html=1;exitX=0.004;exitY=0.165;exitDx=0;exitDy=0;entryX=0.5;entryY=1;entryDx=0;entryDy=0;exitPerimeter=0;" edge="1" parent="1" source="62" target="55">
                    <mxGeometry relative="1" as="geometry">
                        <Array as="points">
                            <mxPoint x="460" y="170"/>
                        </Array>
                    </mxGeometry>
                </mxCell>
                <mxCell id="62" value="System Approaches" style="rounded=1;whiteSpace=wrap;html=1;" vertex="1" parent="1">
                    <mxGeometry x="510" y="160" width="200" height="60" as="geometry"/>
                </mxCell>
                <mxCell id="63" value="leads to" style="rounded=1;whiteSpace=wrap;html=1;;" edge="1" parent="1" source="59" target="60">
                    <mxGeometry relative="1" as="geometry"/>
                </mxCell>
                <mxCell id="64" value="characterize" style="edgeStyle=orthogonalEdgeStyle;rounded=1;html=1;exitX=0.5;exitY=0;exitDx=0;exitDy=0;entryX=0.546;entryY=1.113;entryDx=0;entryDy=0;entryPerimeter=0;" edge="1" parent="1" source="61" target="49">
                    <mxGeometry relative="1" as="geometry"/>
                </mxCell>
                <mxCell id="67" value="Stakeholder Involvement" style="rounded=1;whiteSpace=wrap;html=1;" vertex="1" parent="1">
                    <mxGeometry x="780" y="450" width="200" height="60" as="geometry"/>
                </mxCell>
                <mxCell id="70" value="essential for" style="edgeStyle=orthogonalEdgeStyle;rounded=1;html=1;exitX=0;exitY=0.5;exitDx=0;exitDy=0;entryX=0.5;entryY=1;entryDx=0;entryDy=0;" edge="1" parent="1" source="67" target="17">
                    <mxGeometry relative="1" as="geometry"/>
                </mxCell>
                <mxCell id="80" value="Involves Continuous Learning and Adaptation" style="rounded=1;whiteSpace=wrap;html=1;" vertex="1" parent="1">
                    <mxGeometry x="1090" y="960" width="260" height="60" as="geometry"/>
                </mxCell>
                <mxCell id="vkzU3TonNFi_34LnpfCu-84" style="edgeStyle=none;html=1;exitX=1;exitY=0.5;exitDx=0;exitDy=0;" edge="1" parent="1" source="vkzU3TonNFi_34LnpfCu-82" target="31">
                    <mxGeometry relative="1" as="geometry">
                        <Array as="points">
                            <mxPoint x="1080" y="670"/>
                        </Array>
                    </mxGeometry>
                </mxCell>
                <mxCell id="vkzU3TonNFi_34LnpfCu-82" value="Characterized as Not True or False, but Better or Worse" style="rounded=1;whiteSpace=wrap;html=1;" vertex="1" parent="1">
                    <mxGeometry x="780" y="380" width="300" height="60" as="geometry"/>
                </mxCell>
                <mxCell id="vkzU3TonNFi_34LnpfCu-100" style="edgeStyle=none;html=1;" edge="1" parent="1" source="vkzU3TonNFi_34LnpfCu-95" target="vkzU3TonNFi_34LnpfCu-97">
                    <mxGeometry relative="1" as="geometry"/>
                </mxCell>
                <mxCell id="vkzU3TonNFi_34LnpfCu-106" style="edgeStyle=none;html=1;exitX=1;exitY=0.5;exitDx=0;exitDy=0;entryX=0;entryY=0.5;entryDx=0;entryDy=0;" edge="1" parent="1" source="vkzU3TonNFi_34LnpfCu-95" target="vkzU3TonNFi_34LnpfCu-101">
                    <mxGeometry relative="1" as="geometry"/>
                </mxCell>
                <mxCell id="vkzU3TonNFi_34LnpfCu-109" style="edgeStyle=none;html=1;exitX=1;exitY=0.75;exitDx=0;exitDy=0;entryX=0;entryY=0.5;entryDx=0;entryDy=0;" edge="1" parent="1" source="vkzU3TonNFi_34LnpfCu-95" target="vkzU3TonNFi_34LnpfCu-102">
                    <mxGeometry relative="1" as="geometry"/>
                </mxCell>
                <mxCell id="vkzU3TonNFi_34LnpfCu-110" style="edgeStyle=none;html=1;exitX=1;exitY=0.75;exitDx=0;exitDy=0;entryX=0;entryY=0.75;entryDx=0;entryDy=0;" edge="1" parent="1" source="vkzU3TonNFi_34LnpfCu-95" target="vkzU3TonNFi_34LnpfCu-104">
                    <mxGeometry relative="1" as="geometry"/>
                </mxCell>
                <mxCell id="vkzU3TonNFi_34LnpfCu-147" style="edgeStyle=none;html=1;exitX=0.5;exitY=1;exitDx=0;exitDy=0;entryX=0.5;entryY=0;entryDx=0;entryDy=0;" edge="1" parent="1" source="vkzU3TonNFi_34LnpfCu-95" target="80">
                    <mxGeometry relative="1" as="geometry"/>
                </mxCell>
                <mxCell id="vkzU3TonNFi_34LnpfCu-95" value="Planning process" style="rounded=1;whiteSpace=wrap;html=1;" vertex="1" parent="1">
                    <mxGeometry x="1100" y="820" width="240" height="60" as="geometry"/>
                </mxCell>
                <mxCell id="vkzU3TonNFi_34LnpfCu-96" value="Not offering ready-made solutions, but assisting in raising questions" style="rounded=1;whiteSpace=wrap;html=1;" vertex="1" parent="1">
                    <mxGeometry x="1360" y="710" width="280" height="60" as="geometry"/>
                </mxCell>
                <mxCell id="vkzU3TonNFi_34LnpfCu-97" value="&amp;nbsp;Raising questions&amp;nbsp;&amp;nbsp;" style="rounded=1;whiteSpace=wrap;html=1;" vertex="1" parent="1">
                    <mxGeometry x="1390" y="790" width="210" height="50" as="geometry"/>
                </mxCell>
                <mxCell id="vkzU3TonNFi_34LnpfCu-99" style="edgeStyle=none;html=1;exitX=1;exitY=0.5;exitDx=0;exitDy=0;entryX=0;entryY=0.5;entryDx=0;entryDy=0;" edge="1" parent="1" source="vkzU3TonNFi_34LnpfCu-98" target="vkzU3TonNFi_34LnpfCu-96">
                    <mxGeometry relative="1" as="geometry"/>
                </mxCell>
                <mxCell id="vkzU3TonNFi_34LnpfCu-98" value="Planner" style="rounded=1;whiteSpace=wrap;html=1;" vertex="1" parent="1">
                    <mxGeometry x="1130" y="710" width="180" height="60" as="geometry"/>
                </mxCell>
                <mxCell id="vkzU3TonNFi_34LnpfCu-101" value="Gathering evidence" style="rounded=1;whiteSpace=wrap;html=1;" vertex="1" parent="1">
                    <mxGeometry x="1390" y="850" width="210" height="50" as="geometry"/>
                </mxCell>
                <mxCell id="vkzU3TonNFi_34LnpfCu-102" value="Building arguments," style="rounded=1;whiteSpace=wrap;html=1;" vertex="1" parent="1">
                    <mxGeometry x="1390" y="920" width="210" height="40" as="geometry"/>
                </mxCell>
                <mxCell id="vkzU3TonNFi_34LnpfCu-104" value="Weighing different positions" style="rounded=1;whiteSpace=wrap;html=1;" vertex="1" parent="1">
                    <mxGeometry x="1390" y="980" width="210" height="40" as="geometry"/>
                </mxCell>
                <mxCell id="vkzU3TonNFi_34LnpfCu-128" style="edgeStyle=none;html=1;exitX=1;exitY=0.25;exitDx=0;exitDy=0;entryX=0;entryY=0.25;entryDx=0;entryDy=0;" edge="1" parent="1" source="vkzU3TonNFi_34LnpfCu-122" target="61">
                    <mxGeometry relative="1" as="geometry"/>
                </mxCell>
                <mxCell id="vkzU3TonNFi_34LnpfCu-122" value="Understand problems" style="rounded=1;whiteSpace=wrap;html=1;" vertex="1" parent="1">
                    <mxGeometry x="40" y="300" width="240" height="40" as="geometry"/>
                </mxCell>
                <mxCell id="vkzU3TonNFi_34LnpfCu-129" style="edgeStyle=none;html=1;exitX=1;exitY=0.5;exitDx=0;exitDy=0;entryX=0;entryY=0.5;entryDx=0;entryDy=0;" edge="1" parent="1" source="vkzU3TonNFi_34LnpfCu-123" target="61">
                    <mxGeometry relative="1" as="geometry"/>
                </mxCell>
                <mxCell id="vkzU3TonNFi_34LnpfCu-123" value="Gather info" style="rounded=1;whiteSpace=wrap;html=1;" vertex="1" parent="1">
                    <mxGeometry x="40" y="350" width="240" height="40" as="geometry"/>
                </mxCell>
                <mxCell id="vkzU3TonNFi_34LnpfCu-130" style="edgeStyle=none;html=1;exitX=1;exitY=0.5;exitDx=0;exitDy=0;" edge="1" parent="1" source="vkzU3TonNFi_34LnpfCu-124">
                    <mxGeometry relative="1" as="geometry">
                        <mxPoint x="380" y="430" as="targetPoint"/>
                    </mxGeometry>
                </mxCell>
                <mxCell id="vkzU3TonNFi_34LnpfCu-124" value="Generate solution" style="rounded=1;whiteSpace=wrap;html=1;" vertex="1" parent="1">
                    <mxGeometry x="40" y="400" width="240" height="40" as="geometry"/>
                </mxCell>
                <mxCell id="vkzU3TonNFi_34LnpfCu-131" style="edgeStyle=none;html=1;exitX=1;exitY=0.5;exitDx=0;exitDy=0;entryX=-0.003;entryY=0.697;entryDx=0;entryDy=0;entryPerimeter=0;" edge="1" parent="1" source="vkzU3TonNFi_34LnpfCu-125" target="61">
                    <mxGeometry relative="1" as="geometry"/>
                </mxCell>
                <mxCell id="vkzU3TonNFi_34LnpfCu-125" value="Assess solution" style="rounded=1;whiteSpace=wrap;html=1;" vertex="1" parent="1">
                    <mxGeometry x="40" y="450" width="240" height="40" as="geometry"/>
                </mxCell>
                <mxCell id="vkzU3TonNFi_34LnpfCu-132" style="edgeStyle=none;html=1;exitX=1;exitY=0.5;exitDx=0;exitDy=0;entryX=0;entryY=0.903;entryDx=0;entryDy=0;entryPerimeter=0;" edge="1" parent="1" source="vkzU3TonNFi_34LnpfCu-126" target="61">
                    <mxGeometry relative="1" as="geometry"/>
                </mxCell>
                <mxCell id="vkzU3TonNFi_34LnpfCu-126" value="Implement" style="rounded=1;whiteSpace=wrap;html=1;" vertex="1" parent="1">
                    <mxGeometry x="40" y="500" width="240" height="40" as="geometry"/>
                </mxCell>
                <mxCell id="vkzU3TonNFi_34LnpfCu-133" style="edgeStyle=none;html=1;exitX=1;exitY=0.75;exitDx=0;exitDy=0;entryX=0;entryY=1;entryDx=0;entryDy=0;" edge="1" parent="1" source="vkzU3TonNFi_34LnpfCu-127" target="61">
                    <mxGeometry relative="1" as="geometry"/>
                </mxCell>
                <mxCell id="vkzU3TonNFi_34LnpfCu-127" value="Modify solution" style="rounded=1;whiteSpace=wrap;html=1;" vertex="1" parent="1">
                    <mxGeometry x="40" y="550" width="240" height="40" as="geometry"/>
                </mxCell>
                <mxCell id="23" value="Maximized Involvement" style="rounded=1;whiteSpace=wrap;html=1;" vertex="1" parent="1">
                    <mxGeometry x="1130" y="460" width="180" height="60" as="geometry"/>
                </mxCell>
                <mxCell id="vkzU3TonNFi_34LnpfCu-143" value="" style="rounded=1;whiteSpace=wrap;html=1;;endArrow=none;" edge="1" parent="1" source="vkzU3TonNFi_34LnpfCu-34" target="47">
                    <mxGeometry relative="1" as="geometry">
                        <mxPoint x="245.71428571428578" y="810" as="sourcePoint"/>
                        <mxPoint x="474.2857142857142" y="890" as="targetPoint"/>
                    </mxGeometry>
                </mxCell>
                <mxCell id="47" value="Intuitive vs Systematic&amp;nbsp;" style="rounded=1;whiteSpace=wrap;html=1;" vertex="1" parent="1">
                    <mxGeometry x="70" y="890" width="180" height="60" as="geometry"/>
                </mxCell>
                <mxCell id="vkzU3TonNFi_34LnpfCu-148" value="Week 8: On the Planning Crisis" style="rounded=1;whiteSpace=wrap;html=1;" vertex="1" parent="1">
                    <mxGeometry x="1370" y="40" width="200" height="60" as="geometry"/>
                </mxCell>
                <mxCell id="vkzU3TonNFi_34LnpfCu-149" value="Yunting Zhao" style="rounded=1;whiteSpace=wrap;html=1;" vertex="1" parent="1">
                    <mxGeometry x="1370" y="120" width="200" height="60" as="geometry"/>
                </mxCell>
            </root>
        </mxGraphModel>
    </diagram>
</mxfile>